inDegrees=yes
name=ik_S47_A03_T02
DataType=double
version=3
OpenSimVersion=4.3-2021-08-27-4bc7ad9
endheader
time	pelvis_tilt	pelvis_list	pelvis_rotation	pelvis_tx	pelvis_ty	pelvis_tz	hip_flexion_r	hip_adduction_r	hip_rotation_r	knee_angle_r	knee_angle_r_beta	ankle_angle_r	subtalar_angle_r	mtp_angle_r	hip_flexion_l	hip_adduction_l	hip_rotation_l	knee_angle_l	knee_angle_l_beta	ankle_angle_l	subtalar_angle_l	mtp_angle_l	lumbar_extension	lumbar_bending	lumbar_rotation	arm_flex_r	arm_add_r	arm_rot_r	elbow_flex_r	pro_sup_r	wrist_flex_r	wrist_dev_r	arm_flex_l	arm_add_l	arm_rot_l	elbow_flex_l	pro_sup_l	wrist_flex_l	wrist_dev_l
21.11999999999964	1.852004070508767	-1.464779300452232	91.08675065295635	0	0.9399999999999999	0	4.009650185850487	-0.9152069921542731	-2.660301964603907	3.537553682874347	0.06174195923220869	0	0	0	5.218265986151923	-3.975556499495052	-9.780666525729922	-6.166310566581783	-0.1076224220873691	0	0	0	0	0	0	41.13182551348926	-41.13182551348932	4.928466820094766	84.07009550407372	85.07153345137455	0	0	41.13182551348926	-41.13182551348932	4.928466820094766	84.07009550407372	85.07153345136119	0	0
21.13999999999964	1.953716179829919	-1.578332623784692	90.88147369389617	0	0.9399999999999999	0	3.809344386561983	-1.060885943543492	-3.197324099821257	2.687633422300906	0.046908052305794	0	0	0	5.34548017106655	-3.989364027279369	-10.18477359363292	-6.2703724168879	-0.1094386440009284	0	0	0	0	0	0	41.13257396856587	-41.13257396856593	4.928494671483585	84.07045759652878	85.07150559998695	0	0	41.13257396856587	-41.13257396856593	4.928494671483585	84.07045759652878	85.07150559997359	0	0
21.15999999999964	1.968924538342915	-1.671821382989934	90.79005977580715	0	0.9399999999999999	0	3.346291437149063	-1.238194959739292	-4.184264571055849	1.937176106560134	0.03381010125043886	0	0	0	5.412124874708976	-4.036781103591196	-10.33366823968547	-6.252584792768058	-0.1091281913939299	0	0	0	0	0	0	41.13345784210843	-41.13345784210849	4.928527592244718	84.07088559534409	85.07147267922718	0	0	41.13345784210843	-41.13345784210849	4.928527592244718	84.07088559534409	85.07147267921383	0	0
21.17999999999964	1.916652679328284	-1.966113669877191	90.67218624833663	0	0.9399999999999999	0	2.954725147144822	-1.402175116597169	-4.948150873463426	1.128725722098726	0.01969998020257329	0	0	0	5.721051345099231	-4.03752890517553	-10.39495158494518	-6.292995770989894	-0.1098334960178527	0	0	0	0	0	0	41.13433848079794	-41.13433848079799	4.928560383715725	84.07131191321496	85.07143988775762	0	0	41.13433848079794	-41.13433848079799	4.928560383715725	84.07131191321496	85.07143988774426	0	0
21.19999999999964	1.834443193296097	-2.509907898203187	90.56506630810622	0	0.9399999999999999	0	3.087702698248506	-1.498814614488405	-5.667251890912453	0.6797479580026424	0.01186383995085425	0	0	0	6.250538210551292	-4.012960179963792	-10.67492111234774	-6.403232306758433	-0.1117574865230062	0	0	0	0	0	0	41.13515043179046	-41.13515043179052	4.928590581710951	84.07170451347581	85.07140968976368	0	0	41.13515043179046	-41.13515043179052	4.928590581710951	84.07170451347581	85.07140968975033	0	0
21.21999999999964	1.80379802781318	-2.650425501297425	90.54767288974372	0	0.9399999999999999	0	3.249046517369715	-1.448204724802202	-5.774476074932947	0.5555467030453979	0.009696119116741403	0	0	0	6.462435590290388	-3.953843579354694	-10.59694298757484	-6.417332732872086	-0.1120035853846236	0	0	0	0	0	0	41.13548196632461	-41.13548196632467	4.928602892072758	84.07186455882763	85.0713973794024	0	0	41.13548196632461	-41.13548196632467	4.928602892072758	84.07186455882763	85.07139737938904	0	0
21.23999999999964	1.778003735473236	-2.754537812759724	90.54288899561878	0	0.9399999999999999	0	3.453621171105974	-1.459806628370156	-5.522679152437328	0.5049795352759525	0.008813555545756224	0	0	0	6.632288083441532	-3.85589219743997	-10.43868927392759	-6.390343271941462	-0.1115325304280459	0	0	0	0	0	0	41.13586676387711	-41.13586676387717	4.928616964694799	84.07204751432977	85.07138330678092	0	0	41.13586676387711	-41.13586676387717	4.928616964694799	84.07204751432977	85.07138330676756	0	0
21.25999999999964	1.796453399434913	-2.728585917653506	90.57523964248757	0	0.9399999999999999	0	3.496633182469575	-1.413448128680724	-5.313556001285532	0.4573922302702783	0.007983000391256429	0	0	0	6.650541322606874	-3.866076812313509	-10.44933155657323	-6.396372149084978	-0.1116377541843985	0	0	0	0	0	0	41.136169715545	-41.13616971554506	4.928628220883969	84.07219385454567	85.07137205059223	0	0	41.136169715545	-41.13616971554506	4.928628220883969	84.07219385454567	85.07137205057887	0	0
21.27999999999964	1.835768120779901	-2.539306762379204	90.74600532650328	0	0.9399999999999999	0	3.394743131973083	-1.293331840435141	-5.003968882691082	0.4215222432210846	0.007356951014600274	0	0	0	6.504027046665362	-3.916747485757322	-10.43755654255957	-6.342182313859023	-0.1106919631385923	0	0	0	0	0	0	41.13646970035073	-41.13646970035079	4.928639361016971	84.07233868590689	85.07136091045969	0	0	41.13646970035073	-41.13646970035079	4.928639361016971	84.07233868590689	85.07136091044634	0	0
21.29999999999963	1.821731067788439	-2.208231705652853	91.28620354916434	0	0.9399999999999999	0	3.143785949202218	-1.263289294250548	-5.034701298058684	0.3952245605868743	0.006897969866988768	0	0	0	6.222290371974807	-3.843929706990583	-9.901171074258409	-6.324957428532419	-0.1103913321763646	0	0	0	0	0	0	41.13680143652406	-41.13680143652412	4.928651649454062	84.07249844610156	85.07134862202311	0	0	41.13680143652406	-41.13680143652412	4.928651649454062	84.07249844610156	85.07134862200976	0	0
21.31999999999963	1.796309282218254	-2.132271901751059	91.74183011346418	0	0.9399999999999999	0	3.123346297495089	-1.225449886533577	-4.704784953486731	0.3728889696601898	0.006508140264939553	0	0	0	6.211672822463165	-3.803496322860955	-9.66705891018969	-6.308595992559807	-0.1101057712482883	0	0	0	0	0	0	41.13689511437449	-41.13689511437455	4.928655094827621	84.07254323881608	85.0713451766497	0	0	41.13689511437449	-41.13689511437455	4.928655094827621	84.07254323881608	85.07134517663636	0	0
21.33999999999963	1.804029419027195	-2.089587738633618	92.19953587812122	0	0.9399999999999999	0	3.118891935187302	-1.194300929582984	-4.713507414622898	0.3080560395086513	0.0053765921700797	0	0	0	6.230347755822766	-3.774235518812333	-9.448478125051038	-6.202970278972581	-0.1082622547714227	0	0	0	0	0	0	41.1372042860639	-41.13720428606396	4.928666562949808	84.07269233426616	85.07133370852802	0	0	41.1372042860639	-41.13720428606396	4.928666562949808	84.07269233426616	85.07133370851467	0	0
21.35999999999963	1.806788160501911	-2.104922862980678	92.64323868501339	0	0.9399999999999999	0	3.125059616151172	-1.164680896402451	-4.771546642618233	0.3228572969121355	0.005634922845205686	0	0	0	6.366484056376227	-3.723892021422312	-9.225596745960141	-6.17123217800991	-0.1077083204112937	0	0	0	0	0	0	41.13740125371282	-41.13740125371285	4.928673846725049	84.07278702952586	85.07132642475311	0	0	41.13740125371282	-41.13740125371285	4.928673846725049	84.07278702952586	85.07132642473977	0	0
21.37999999999963	1.774388155238949	-2.159641402489958	93.15677724954456	0	0.9399999999999999	0	3.173191637131034	-1.226348391541669	-5.301250046875645	0.410838035304197	0.007170476408482941	0	0	0	6.53542483970514	-3.630211355727451	-8.952509142881146	-5.816833689740432	-0.1015228999269008	0	0	0	0	0	0	41.13813151353274	-41.13813151353277	4.928700946396313	84.07313934857748	85.07129932508299	0	0	41.13813151353274	-41.13813151353277	4.928700946396313	84.07313934857748	85.07129932506965	0	0
21.39999999999963	1.753433379176431	-2.187544172564069	93.4213010675653	0	0.9399999999999999	0	3.076976462579614	-1.229620797747532	-5.308012686440757	0.2652742216550961	0.004629908588546668	0	0	0	6.73020936433215	-3.60145133222745	-9.674073436877034	-5.221627724870339	-0.09113459611240801	0	0	0	0	0	0	41.13902049555077	-41.1390204955508	4.928734018379763	84.0735693130933	85.07126625310097	0	0	41.13902049555077	-41.1390204955508	4.928734018379763	84.0735693130933	85.07126625308763	0	0
21.41999999999963	1.646253668933541	-2.228408571175174	94.02762836508479	0	0.9399999999999999	0	3.052431675788144	-1.302766040780987	-5.577278025099544	0.1964875562226464	0.003429354795282652	0	0	0	6.923411903475369	-3.440817124183531	-9.912227758731028	-4.811709290104637	-0.08398016976112492	0	0	0	0	0	0	41.13969206709438	-41.13969206709442	4.928758978623761	84.07389381784965	85.07124129285798	0	0	41.13969206709438	-41.13969206709442	4.928758978623761	84.07389381784965	85.07124129284463	0	0
21.43999999999963	1.539772304303431	-2.257372591657561	94.66406107254917	0	0.9399999999999999	0	3.016940184689268	-1.346431145842177	-5.85690568059684	0.1202471255275789	0.002098708256515175	0	0	0	7.076666156264449	-3.323728897817392	-10.28083238769108	-5.30913728271004	-0.09266192602367521	0	0	0	0	0	0	41.14039209585783	-41.14039209585786	4.928784996812344	84.07423207678362	85.07121527467051	0	0	41.14039209585783	-41.14039209585786	4.928784996812344	84.07423207678362	85.07121527465716	0	0
21.45999999999963	1.369831367471691	-2.31894116288363	95.58427699399662	0	0.9399999999999999	0	2.9108641722252	-1.522433301618242	-6.507819757651991	0.0262183233916024	0.0004575960675361085	0	0	0	7.312251168265022	-2.925094141915134	-9.782858311780997	-5.152716419150141	-0.08993186693574216	0	0	0	0	0	0	41.14066963097444	-41.14066963097446	4.928795247259525	84.07436534121754	85.07120502422379	0	0	41.14066963097444	-41.14066963097446	4.928795247259525	84.07436534121754	85.07120502421044	0	0
21.47999999999963	1.297447927894768	-2.368714095135033	95.88195613407743	0	0.9399999999999999	0	2.832458324663893	-1.598774958058233	-6.530908106512065	-0.1710419913732217	-0.002985245908630457	0	0	0	7.575089662853886	-2.684046478342839	-9.756870971597724	-4.70003926782047	-0.08203116019649077	0	0	0	0	0	0	41.14124069279786	-41.14124069279789	4.928816445746644	84.07464093975358	85.07118382573756	0	0	41.14124069279786	-41.14124069279789	4.928816445746644	84.07464093975358	85.07118382572429	0	0
21.49999999999963	1.269180166348264	-2.422142339338499	96.39177823226825	0	0.9399999999999999	0	2.758484501626033	-1.631459498270939	-6.814914122269721	-0.224482719870958	-0.003917962575580317	0	0	0	7.693702065972318	-2.541518998932916	-9.876679872187191	-4.62422384209006	-0.08070793139369388	0	0	0	0	0	0	41.14140918039525	-41.14140918039529	4.928822665284505	84.07472179896135	85.07117760619997	0	0	41.14140918039525	-41.14140918039529	4.928822665284505	84.07472179896135	85.07117760618669	0	0
21.51999999999963	1.232095114188794	-2.476086085262799	97.02505626879822	0	0.9399999999999999	0	2.651642915801683	-1.717884049599915	-7.301121261956634	-0.3919303581320159	-0.00684047518792421	0	0	0	7.780596518013486	-2.334555153555317	-9.982658395140781	-4.592492318830818	-0.08015411183614694	0	0	0	0	0	0	41.14186028469097	-41.14186028469101	4.928839396634459	84.07493932081871	85.07116087485069	0	0	41.14186028469097	-41.14186028469101	4.928839396634459	84.07493932081871	85.07116087483742	0	0
21.53999999999963	1.260740694937004	-2.484973661307241	97.24425784806004	0	0.9399999999999999	0	2.498746049441113	-1.715356393908245	-7.344079606885597	-0.5674085614507771	-0.009903147601320633	0	0	0	7.771116623593106	-2.283220012022108	-10.50796131741507	-4.918100827058468	-0.0858370523772265	0	0	0	0	0	0	41.14241358559256	-41.14241358559259	4.928859946966713	84.07520649280148	85.07114032451926	0	0	41.14241358559256	-41.14241358559259	4.928859946966713	84.07520649280148	85.07114032450599	0	0
21.55999999999963	1.332143176536195	-2.51122919323858	97.74019981480035	0	0.9399999999999999	0	2.371879203540764	-1.671553134231219	-7.663782871654337	-0.7595386295406814	-0.01325644988157036	0	0	0	7.750295313042378	-2.209346483843238	-10.61912071380365	-5.371640010622695	-0.0937528044172292	0	0	0	0	0	0	41.14308540808382	-41.14308540808385	4.928884888778888	84.07553075774571	85.07111538270814	0	0	41.14308540808382	-41.14308540808385	4.928884888778888	84.07553075774571	85.07111538269488	0	0
21.57999999999963	1.501268347309552	-2.635953303543618	98.48952803338969	0	0.9399999999999999	0	2.377135256830211	-1.556736587334469	-8.159737814594653	-0.8544890129659658	-0.01491364669837262	0	0	0	7.83758039160131	-2.237777503509357	-10.10504145643128	-5.470101149824434	-0.09547127548156402	0	0	0	0	0	0	41.14342536043613	-41.14342536043617	4.928897453358576	84.0756941078489	85.07110281812901	0	0	41.14342536043613	-41.14342536043617	4.928897453358576	84.0756941078489	85.07110281811573	0	0
